<svg xmlns="http://www.w3.org/2000/svg" xmlns:xlink="http://www.w3.org/1999/xlink" version="1.1" width="256" height="256" viewBox="0 0 256 256" xml:space="preserve">

<defs>
</defs>
<g style="stroke: none; stroke-width: 0; stroke-dasharray: none; stroke-linecap: butt; stroke-linejoin: miter; stroke-miterlimit: 10; fill: none; fill-rule: nonzero; opacity: 1;" transform="translate(1.4065934065934016 1.4065934065934016) scale(2.81 2.81)" >
	<path d="M 79.624 14.157 l 4.453 -5.575 l -8.63 -4.261 c -0.43 -0.272 -0.883 -0.506 -1.371 -0.677 L 74.02 3.617 L 74.018 3.62 c -0.783 -0.266 -1.629 -0.403 -2.525 -0.385 c -6.298 0.119 -31.487 8.094 -31.487 8.094 S 14.816 19.303 8.551 23.161 c -3.457 2.126 -6.16 6.021 -7.053 10.164 c -1.622 7.509 -1.496 22.065 -1.496 22.065 s 0.127 14.556 1.87 20.999 c 0.572 2.117 1.79 3.726 3.407 4.68 l -0.005 0.011 l 0.096 0.048 c 0.142 0.081 0.289 0.149 0.437 0.219 l 9.635 4.831 l 2.255 -5.703 c 9.676 -2.354 22.853 -6.525 22.853 -6.525 s 25.189 -7.974 31.454 -11.833 c 3.457 -2.126 6.16 -6.021 7.053 -10.164 c 1.622 -7.509 1.496 -22.065 1.496 -22.065 S 80.476 21.1 79.624 14.157 z" style="stroke: none; stroke-width: 1; stroke-dasharray: none; stroke-linecap: butt; stroke-linejoin: miter; stroke-miterlimit: 10; fill: rgb(201,0,0); fill-rule: nonzero; opacity: 1;" transform=" matrix(1 0 0 1 0 0) " stroke-linecap="round" />
	<path d="M 81.887 11.323 l 2.189 -2.741 l -8.63 -4.261 c -0.43 -0.272 -0.883 -0.506 -1.371 -0.677 L 74.02 3.617 L 74.018 3.62 c -0.783 -0.266 -1.629 -0.403 -2.525 -0.385 c -6.298 0.119 -31.487 8.094 -31.487 8.094 S 14.816 19.303 8.551 23.161 c -1.728 1.063 -3.267 2.567 -4.486 4.324 c 1.571 4.303 5.045 5.38 9.946 4.039 L 81.887 11.323 z" style="stroke: none; stroke-width: 1; stroke-dasharray: none; stroke-linecap: butt; stroke-linejoin: miter; stroke-miterlimit: 10; fill: rgb(224,0,0); fill-rule: nonzero; opacity: 1;" transform=" matrix(1 0 0 1 0 0) " stroke-linecap="round" />
	<path d="M 88.127 13.612 c -0.96 -3.556 -3.716 -5.723 -7.19 -5.654 c -6.298 0.119 -31.487 8.094 -31.487 8.094 s -25.189 7.974 -31.454 11.832 c -3.457 2.126 -6.16 6.021 -7.053 10.164 c -1.623 7.509 -1.496 22.065 -1.496 22.065 s 0.127 14.556 1.87 20.999 c 0.96 3.556 3.716 5.723 7.19 5.654 c 6.298 -0.119 31.487 -8.094 31.487 -8.094 s 25.189 -7.974 31.454 -11.832 c 3.457 -2.126 6.16 -6.021 7.053 -10.164 c 1.623 -7.509 1.496 -22.065 1.496 -22.065 S 89.871 20.055 88.127 13.612 z" style="stroke: none; stroke-width: 1; stroke-dasharray: none; stroke-linecap: butt; stroke-linejoin: miter; stroke-miterlimit: 10; fill: rgb(255,0,0); fill-rule: nonzero; opacity: 1;" transform=" matrix(1 0 0 1 0 0) " stroke-linecap="round" />
	<polygon points="41.78,63.33 62.59,43.29 41.55,36.49 " style="stroke: none; stroke-width: 1; stroke-dasharray: none; stroke-linecap: butt; stroke-linejoin: miter; stroke-miterlimit: 10; fill: rgb(255,255,255); fill-rule: nonzero; opacity: 1;" transform="  matrix(1 0 0 1 0 0) "/>
</g>
</svg>