<svg xmlns="http://www.w3.org/2000/svg" xmlns:xlink="http://www.w3.org/1999/xlink" id="movie" enable-background="new 0 0 32 32" viewBox="0 0 32 32">
  <defs id="defs25">
    <linearGradient id="linearGradient4136">
      <stop id="stop4138" offset="0" stop-color="#000092"></stop>
      <stop id="stop4140" offset="1" stop-color="#ff00f3"></stop>
    </linearGradient>
    <linearGradient xlink:href="#linearGradient4136" id="linearGradient4142" x1="4.5" x2="24" y1="16" y2="16" gradientUnits="userSpaceOnUse"></linearGradient>
  </defs>
  <path id="path7" fill="url(#linearGradient4142)" d="M 13 7.5 C 8.313 7.5 4.5 11.313 4.5 16 C 4.5 20.687 8.313 24.5 13 24.5 C 13.135 24.5 13.266391 24.486469 13.400391 24.480469 C 13.434391 24.487469 13.465 24.5 13.5 24.5 L 18 24.5 C 21.584 24.5 24.5 21.584 24.5 18 L 24.5 17 L 24.5 14 L 24.5 11 C 24.5 9.622 25.621 8.5 27 8.5 C 27.276 8.5 27.5 8.276 27.5 8 C 27.5 7.724 27.276 7.5 27 7.5 C 25.07 7.5 23.5 9.07 23.5 11 L 23.5 14 L 23.5 17 L 23.5 18 C 23.5 21.033 21.032 23.5 18 23.5 L 16.990234 23.5 C 19.670234 22.068 21.5 19.245 21.5 16 C 21.5 11.313 17.687 7.5 13 7.5 z M 13 8.5 C 17.136 8.5 20.5 11.864 20.5 16 C 20.5 20.136 17.136 23.5 13 23.5 C 8.864 23.5 5.5 20.136 5.5 16 C 5.5 11.864 8.864 8.5 13 8.5 z M 13 9.5 C 11.897 9.5 11 10.397 11 11.5 C 11 12.603 11.897 13.5 13 13.5 C 14.103 13.5 15 12.603 15 11.5 C 15 10.397 14.103 9.5 13 9.5 z M 13 10.5 C 13.552 10.5 14 10.949 14 11.5 C 14 12.051 13.552 12.5 13 12.5 C 12.448 12.5 12 12.051 12 11.5 C 12 10.949 12.448 10.5 13 10.5 z M 8.9277344 11.798828 C 8.7974688 11.808938 8.6675625 11.832891 8.5390625 11.869141 C 8.0240625 12.014141 7.5969844 12.348453 7.3339844 12.814453 C 6.7939844 13.776453 7.1366563 14.997109 8.0976562 15.537109 C 8.4016563 15.708109 8.7352188 15.796875 9.0742188 15.796875 C 9.2562188 15.796875 9.4371875 15.770703 9.6171875 15.720703 C 10.131187 15.575703 10.558312 15.241391 10.820312 14.775391 C 11.083312 14.309391 11.148859 13.770859 11.005859 13.255859 C 10.860859 12.741859 10.524594 12.314734 10.058594 12.052734 C 9.7098438 11.856234 9.3185313 11.7685 8.9277344 11.798828 z M 17.074219 11.798828 C 16.683281 11.768359 16.292109 11.856234 15.943359 12.052734 C 15.477359 12.314734 15.140094 12.740859 14.996094 13.255859 C 14.852094 13.769859 14.916688 14.309391 15.179688 14.775391 C 15.441688 15.241391 15.868813 15.575703 16.382812 15.720703 C 16.562812 15.770703 16.743781 15.796875 16.925781 15.796875 C 17.263781 15.796875 17.598344 15.709063 17.902344 15.539062 C 18.863344 14.999062 19.207969 13.777453 18.667969 12.814453 C 18.405969 12.348453 17.977891 12.014141 17.462891 11.869141 C 17.334141 11.832641 17.204531 11.808984 17.074219 11.798828 z M 9.078125 12.794922 C 9.247125 12.794922 9.4154063 12.838828 9.5664062 12.923828 C 9.7994063 13.054828 9.9670625 13.267391 10.039062 13.525391 C 10.111062 13.782391 10.080219 14.052156 9.9492188 14.285156 C 9.8182187 14.518156 9.6037031 14.685812 9.3457031 14.757812 C 9.0907031 14.827813 8.8208906 14.797016 8.5878906 14.666016 C 8.1078906 14.396016 7.9360781 13.784688 8.2050781 13.304688 C 8.3360781 13.071687 8.5505938 12.904031 8.8085938 12.832031 C 8.8985937 12.807031 8.988125 12.794922 9.078125 12.794922 z M 16.921875 12.794922 C 17.012875 12.794922 17.102406 12.807031 17.191406 12.832031 C 17.449406 12.904031 17.663922 13.071687 17.794922 13.304688 C 18.064922 13.785687 17.893109 14.397969 17.412109 14.667969 C 17.179109 14.797969 16.906344 14.828812 16.652344 14.757812 C 16.394344 14.685813 16.181781 14.518156 16.050781 14.285156 C 15.919781 14.052156 15.888938 13.782391 15.960938 13.525391 C 16.031937 13.268391 16.199594 13.054828 16.433594 12.923828 C 16.584594 12.838828 16.752875 12.794922 16.921875 12.794922 z M 13 14.5 C 12.173 14.5 11.5 15.173 11.5 16 C 11.5 16.827 12.173 17.5 13 17.5 C 13.827 17.5 14.5 16.827 14.5 16 C 14.5 15.173 13.827 14.5 13 14.5 z M 13 15.5 C 13.275 15.5 13.5 15.724 13.5 16 C 13.5 16.276 13.275 16.5 13 16.5 C 12.725 16.5 12.5 16.276 12.5 16 C 12.5 15.724 12.725 15.5 13 15.5 z M 9.2265625 16.208984 C 8.8359531 16.178656 8.4479062 16.266391 8.0976562 16.462891 C 7.1366562 17.002891 6.7920312 18.222547 7.3320312 19.185547 C 7.5940312 19.651547 8.0221094 19.987813 8.5371094 20.132812 C 8.7161094 20.182813 8.897125 20.207031 9.078125 20.207031 C 9.417125 20.207031 9.7536406 20.120219 10.056641 19.949219 C 10.522641 19.687219 10.859906 19.260094 11.003906 18.746094 C 11.147906 18.230094 11.083312 17.690609 10.820312 17.224609 C 10.558312 16.758609 10.131187 16.424297 9.6171875 16.279297 C 9.4881875 16.243047 9.3567656 16.219094 9.2265625 16.208984 z M 16.771484 16.210938 C 16.641375 16.221031 16.511312 16.243547 16.382812 16.279297 C 15.868813 16.424297 15.441687 16.758609 15.179688 17.224609 C 14.916688 17.690609 14.851141 18.229141 14.994141 18.744141 C 15.139141 19.258141 15.475406 19.686266 15.941406 19.947266 C 16.245406 20.118266 16.579922 20.205078 16.919922 20.205078 C 17.100922 20.205078 17.281937 20.180859 17.460938 20.130859 C 17.975938 19.985859 18.403016 19.651547 18.666016 19.185547 C 19.206016 18.223547 18.863344 17.002891 17.902344 16.462891 C 17.552094 16.265641 17.161812 16.180656 16.771484 16.210938 z M 16.923828 17.203125 C 17.092828 17.203125 17.261109 17.247031 17.412109 17.332031 C 17.893109 17.604031 18.063922 18.215313 17.794922 18.695312 C 17.663922 18.928313 17.449406 19.095969 17.191406 19.167969 C 16.934406 19.237969 16.664641 19.207172 16.431641 19.076172 C 16.198641 18.945172 16.030984 18.732609 15.958984 18.474609 C 15.886984 18.217609 15.919781 17.947844 16.050781 17.714844 C 16.181781 17.481844 16.394344 17.312234 16.652344 17.240234 C 16.741344 17.215234 16.832828 17.203125 16.923828 17.203125 z M 9.0742188 17.205078 C 9.1652187 17.205078 9.2567031 17.217188 9.3457031 17.242188 C 9.6037031 17.314187 9.8182187 17.481844 9.9492188 17.714844 C 10.080219 17.947844 10.111063 18.217609 10.039062 18.474609 C 9.9680625 18.731609 9.8004062 18.945172 9.5664062 19.076172 C 9.3344063 19.206172 9.0636406 19.238969 8.8066406 19.167969 C 8.5486406 19.095969 8.334125 18.928313 8.203125 18.695312 C 7.933125 18.214312 8.1068906 17.602031 8.5878906 17.332031 C 8.7388906 17.247031 8.9052187 17.205078 9.0742188 17.205078 z M 13 18.5 C 11.897 18.5 11 19.397 11 20.5 C 11 21.603 11.897 22.5 13 22.5 C 14.103 22.5 15 21.603 15 20.5 C 15 19.397 14.103 18.5 13 18.5 z M 13 19.5 C 13.552 19.5 14 19.949 14 20.5 C 14 21.051 13.552 21.5 13 21.5 C 12.448 21.5 12 21.051 12 20.5 C 12 19.949 12.448 19.5 13 19.5 z "></path>
</svg>
