<?xml version="1.0" encoding="UTF-8"?>
<!DOCTYPE svg PUBLIC "-//W3C//DTD SVG 1.1//EN" "http://www.w3.org/Graphics/SVG/1.1/DTD/svg11.dtd">
<!-- Creator: CorelDRAW -->
<svg xmlns="http://www.w3.org/2000/svg" xml:space="preserve" width="6.82666in" height="6.82666in" style="shape-rendering:geometricPrecision; text-rendering:geometricPrecision; image-rendering:optimizeQuality; fill-rule:evenodd; clip-rule:evenodd"
viewBox="0 0 6.82666 6.82666"
 xmlns:xlink="http://www.w3.org/1999/xlink">
 <defs>
  <style type="text/css">
   <![CDATA[
    .fil2 {fill:none}
    .fil4 {fill:#FFA726}
    .fil3 {fill:#FFCC80}
    .fil0 {fill:#00897B;fill-rule:nonzero}
    .fil1 {fill:#26A69A;fill-rule:nonzero}
   ]]>
  </style>
 </defs>
 <g id="Layer_x0020_1">
  <metadata id="CorelCorpID_0Corel-Layer"/>
  <polygon class="fil0" points="3.41333,3.76438 3.41633,3.76438 4.35559,3.76438 4.98284,3.76438 5.06953,3.76438 5.09411,3.84795 5.67541,5.82437 5.71922,5.97333 5.56415,5.97333 3.4137,5.97333 3.41333,5.97333 "/>
  <polygon class="fil1" points="1.84382,3.76438 2.47693,3.76438 3.41333,3.76438 3.41333,5.97333 1.10744,5.97333 1.73256,3.84795 1.75714,3.76438 "/>
  <g id="_490154376">
   <rect id="_490154424" class="fil2" width="6.82666" height="6.82666"/>
   <rect id="_490154760" class="fil2" x="0.853331" y="0.853331" width="5.12" height="5.12"/>
  </g>
  <path class="fil3" d="M4.80846 2.35666c0,0.612606 -0.587,1.41798 -1.02711,2.02183 -0.102028,0.139988 -0.195933,0.268815 -0.271953,0.380921l-0.0962717 0.141961 -0.0958307 -0.142413c-0.0751811,-0.111732 -0.16828,-0.240535 -0.269791,-0.380984 -0.438472,-0.606654 -1.02929,-1.42408 -1.02929,-2.02935 0,-0.412098 0.155575,-0.781827 0.404969,-1.04986 0.254276,-0.273287 0.605823,-0.44087 0.990157,-0.44087 0.385047,0 0.735945,0.168835 0.989831,0.443291 0.249886,0.270146 0.405291,0.642406 0.405291,1.05548z"/>
  <path class="fil4" d="M3.41333 2.87198c-0.182941,0 -0.348858,-0.0735394 -0.469169,-0.192406 -0.120882,-0.119433 -0.195685,-0.284181 -0.195685,-0.46587 0,-0.181693 0.0748031,-0.346429 0.195685,-0.465866 0.120311,-0.118854 0.286236,-0.192402 0.469169,-0.192402 0.182937,0 0.348862,0.0735433 0.469165,0.192402 0.12089,0.119437 0.195693,0.284173 0.195693,0.465866 0,0.181693 -0.0748031,0.346437 -0.195689,0.46587 -0.120307,0.118866 -0.286232,0.192406 -0.469169,0.192406z"/>
 </g>
</svg>
