<?xml version="1.0" encoding="iso-8859-1"?>
<!-- Uploaded to: SVG Repo, www.svgrepo.com, Generator: SVG Repo Mixer Tools -->
<svg height="800px" width="800px" version="1.1" id="Layer_1" xmlns="http://www.w3.org/2000/svg" xmlns:xlink="http://www.w3.org/1999/xlink" 
	 viewBox="0 0 504.131 504.131" xml:space="preserve">
<circle style="fill:#0EE565;" cx="252.065" cy="252.069" r="252.062"/>
<path style="fill:#00C67F;" d="M73.834,73.823c98.43-98.43,258.032-98.43,356.462,0c98.43,98.446,98.446,258.032,0,356.478"/>
<path style="fill:#363D3B;" d="M415.575,264.932l-143.809-66.308c0.016-3.096-0.386-49.924-0.386-52.909
	c0-52.649-4.072-40.582-8.869-57.801c-0.567-3.552-1.646-6.357-2.962-8.381c-2.473-5.829-5.096-8.476-7.42-8.476
	c-2.324,0-4.923,2.647-7.428,8.476c-1.3,2.032-2.292,4.829-2.844,8.381c-4.789,17.219-8.68,5.152-8.68,57.817
	c0,2.97,0.016,49.798,0.055,52.894L88.564,264.932c-2.544,1.182-5.853,3.718-5.853,6.538v15.541c0,2.08,2.584,4.064,4.135,5.427
	c1.339,1.142,3.836,1.772,5.577,1.772c0.315,0,1.079-0.032,1.402-0.079l141.454-19.448c2.371,48.971,6.333,97.997,10.303,126.598
	l-29.46,17.447c-1.694,0.969-2.694,2.788-2.694,4.726l0.031,4.12c0,1.631,0.725,3.167,1.969,4.214
	c0.985,0.827,2.253,1.276,3.529,1.276c0.323,0,0.638-0.032,0.961-0.079l29.798-5.23c0.89-0.158,1.662-0.583,2.339-1.095
	c0.662,0.504,1.449,0.937,2.339,1.095l29.783,5.23c0.339,0.047,0.63,0.079,0.969,0.079c1.26,0,2.528-0.449,3.537-1.276
	c1.237-1.048,1.953-2.584,1.953-4.214l0.016-4.12c0-1.938-1.032-3.742-2.725-4.726l-29.491-17.463
	c3.938-28.585,7.814-77.627,10.185-126.582l141.249,19.448c0.315,0.047,0.646,0.079,0.985,0.079c1.717,0,5.088-0.63,6.396-1.772
	c1.583-1.371,4.167-3.356,4.167-5.427V271.47C421.419,268.65,418.111,266.114,415.575,264.932z"/>
<path style="fill:#1D2321;" d="M415.575,264.932l-143.809-66.308c0.016-3.096-0.386-49.924-0.386-52.909
	c0-52.649-4.072-40.582-8.869-57.801c-0.567-3.552-1.646-6.357-2.962-8.381c-2.473-5.829-5.096-8.476-7.42-8.476
	c-2.324,0-4.923,2.647-7.428,8.476c-1.3,2.032-2.292,4.829-2.844,8.381c-4.789,17.219-8.68,5.152-8.68,57.817
	c0,2.97,0.016,49.798,0.055,52.894l-23.631,10.973l66.064,66.064l134.231,18.479c0.315,0.047,0.646,0.079,0.985,0.079
	c1.717,0,5.088-0.63,6.396-1.772c1.56-1.379,4.143-3.363,4.143-5.435V271.47C421.419,268.65,418.111,266.114,415.575,264.932z"/>
</svg>