<?xml version="1.0" encoding="iso-8859-1"?>
<!-- Uploaded to: SVG Repo, www.svgrepo.com, Generator: SVG Repo Mixer Tools -->
<svg height="800px" width="800px" version="1.1" id="Layer_1" xmlns="http://www.w3.org/2000/svg" xmlns:xlink="http://www.w3.org/1999/xlink" 
	 viewBox="0 0 512 512" xml:space="preserve">
<path style="fill:#B3404A;" d="M256.001,512c-141.16,0-256-114.842-256-256s114.84-256,256-256
	c42.615,0,84.814,10.687,122.034,30.906c6.898,3.747,9.452,12.377,5.705,19.275c-3.748,6.898-12.377,9.451-19.275,5.705
	c-33.068-17.965-70.573-27.459-108.464-27.459C130.517,28.427,28.428,130.517,28.428,256s102.089,227.573,227.573,227.573
	S483.573,381.483,483.573,256c0-48.072-14.803-94.023-42.809-132.889c-4.59-6.369-3.145-15.251,3.222-19.841
	c6.368-4.588,15.251-3.147,19.841,3.222c31.514,43.735,48.171,95.433,48.171,149.507C512.001,397.158,397.159,512,256.001,512z"/>
<path style="fill:#F4B2B0;" d="M265.032,357.07c-1.598-0.318-3.187-0.613-4.769-0.89l-0.924-0.158
	c-1.42-0.242-2.833-0.47-4.237-0.681l-0.473-0.072c-1.579-0.233-3.144-0.445-4.7-0.638l-0.661-0.08
	c-1.404-0.172-2.787-0.327-4.162-0.469l-0.597-0.063c-1.551-0.155-3.089-0.294-4.609-0.415c-6.257-0.499-12.683-0.752-19.103-0.752
	c-2.733,0-5.508,0.045-8.245,0.136c-32.738,1.087-56.96,8.15-57.196,8.221c-1.618,0.482-3.248,0.721-4.881,0.721
	c-8.25,0-15.537-6.062-17.722-14.741c-2.679-10.649,3.077-21.694,12.832-24.622c2.857-0.849,28.876-8.309,65.022-9.607
	c3.502-0.125,7.034-0.19,10.498-0.19c5.965,0,11.924,0.189,17.764,0.564l0.003-0.03l3.85,0.297
	c10.431,0.827,20.698,2.274,30.512,4.3c25.012,5.178,47.837,14.272,67.843,27.026c8.174,5.208,11.381,16.212,7.459,25.597
	c-0.256,0.613-0.547,1.224-0.863,1.817c-3.282,6.126-9.365,9.931-15.878,9.931c-3.245,0-6.447-0.947-9.259-2.736l-0.361-0.223
	c-1.346-0.853-2.703-1.674-4.065-2.477c-0.466-0.274-0.934-0.544-1.403-0.814c-1.222-0.702-2.452-1.387-3.686-2.051l-0.886-0.482
	c-1.481-0.785-2.973-1.536-4.467-2.266l-1.313-0.63c-1.218-0.581-2.438-1.144-3.66-1.689l-1.087-0.488
	c-1.522-0.665-3.046-1.303-4.571-1.916l-1.129-0.442c-1.258-0.495-2.513-0.971-3.769-1.428l-1.183-0.432
	c-1.551-0.554-3.101-1.087-4.651-1.591l-0.79-0.249c-1.346-0.431-2.692-0.844-4.038-1.239l-1.183-0.347
	c-1.581-0.453-3.158-0.89-4.733-1.298c-1.659-0.426-3.204-0.799-4.746-1.156l-1.099-0.25c-1.515-0.341-3.027-0.669-4.533-0.971"/>
<path style="fill:#B3404A;" d="M331.798,396.489c-5.917,0-11.722-1.693-16.796-4.898l-0.291-0.179
	c-0.047-0.03-0.094-0.058-0.141-0.088c-1.217-0.77-2.443-1.512-3.673-2.239c-0.425-0.25-0.851-0.496-1.278-0.741
	c-1.096-0.628-2.209-1.251-3.327-1.852l-0.877-0.478c-1.319-0.696-2.647-1.365-3.977-2.014l-1.222-0.586
	c-1.085-0.517-2.195-1.029-3.306-1.525l-1.111-0.499c-1.274-0.557-2.665-1.138-4.058-1.699l-1.008-0.394
	c-1.171-0.459-2.32-0.895-3.47-1.316l-1.178-0.431c-1.329-0.473-2.75-0.962-4.172-1.424l-0.672-0.212
	c-1.296-0.415-2.534-0.795-3.771-1.157l-1.168-0.343c-1.384-0.397-2.843-0.802-4.298-1.178c-1.521-0.391-2.956-0.738-4.388-1.067
	l-1.048-0.239c-1.376-0.31-2.78-0.614-4.176-0.894c-0.072-0.014-0.145-0.03-0.217-0.046c-1.461-0.29-2.915-0.559-4.364-0.813
	l-0.87-0.148c-1.313-0.225-2.631-0.436-3.94-0.633l-0.532-0.082c-1.383-0.203-2.846-0.401-4.3-0.583l-0.59-0.07
	c-1.347-0.165-2.642-0.31-3.929-0.443l-0.62-0.064c-1.386-0.138-2.827-0.269-4.254-0.382c-8.4-0.669-17.146-0.866-25.752-0.578
	c-30.541,1.015-53.432,7.586-53.659,7.651c-2.874,0.857-5.882,1.298-8.888,1.298c-14.775,0-27.729-10.481-31.504-25.486
	c-4.507-17.915,5.599-36.623,22.531-41.704c3.067-0.911,30.717-8.837,68.596-10.197c9.742-0.347,19.342-0.234,28.731,0.334
	c0.382-0.009,0.756,0.013,1.137,0.043l3.85,0.297c11.045,0.876,21.902,2.405,32.293,4.551c26.714,5.531,51.141,15.274,72.609,28.96
	c13.922,8.869,19.484,27.384,12.933,43.063c-0.428,1.028-0.917,2.055-1.45,3.049C354.444,389.808,343.558,396.489,331.798,396.489z
	 M329.713,367.266l0.291,0.179c0.055,0.034,0.111,0.068,0.166,0.104c0.527,0.335,1.09,0.513,1.627,0.513
	c1.244,0,2.558-0.954,3.349-2.429c0.101-0.188,0.195-0.387,0.274-0.577c1.252-2.998,0.364-6.645-1.979-8.137
	c-18.549-11.827-39.774-20.269-63.087-25.096c-9.233-1.906-18.91-3.269-28.754-4.049l-2.898-0.223
	c-0.246-0.003-0.493-0.013-0.742-0.028c-8.743-0.561-17.719-0.681-26.844-0.354c-34.37,1.234-58.81,8.233-61.484,9.028
	c-2.169,0.651-3.978,4.015-3.094,7.528c0.573,2.278,2.266,3.995,3.937,3.995c0.262,0,0.53-0.043,0.823-0.129
	c0.216-0.065,25.755-7.64,60.78-8.804c9.671-0.32,19.5-0.101,28.95,0.652c1.612,0.128,3.245,0.276,4.892,0.441l0.665,0.07
	c1.438,0.148,2.911,0.314,4.405,0.496l0.628,0.075c1.73,0.216,3.397,0.442,5.08,0.689l0.566,0.087
	c1.441,0.216,2.949,0.459,4.466,0.718l0.934,0.159c1.745,0.306,3.441,0.62,5.148,0.959c0.081,0.017,0.162,0.033,0.242,0.051
	c1.59,0.32,3.188,0.665,4.79,1.026l1.126,0.257c1.701,0.394,3.357,0.792,5.134,1.249c1.711,0.443,3.407,0.913,5.107,1.4l1.261,0.368
	c1.468,0.432,2.924,0.878,4.379,1.345l0.731,0.23c1.797,0.583,3.477,1.16,5.157,1.76l1.275,0.466
	c1.366,0.499,2.726,1.015,4.091,1.551l1.11,0.435c1.778,0.714,3.435,1.407,5.09,2.131l1.204,0.539
	c1.309,0.583,2.639,1.198,3.968,1.832l1.336,0.641c1.726,0.841,3.356,1.663,4.975,2.52c0.051,0.027,0.102,0.055,0.154,0.082
	l0.885,0.482c1.278,0.687,2.624,1.437,3.96,2.204c0.525,0.301,1.035,0.596,1.542,0.895
	C326.796,365.459,328.26,366.346,329.713,367.266z"/>
<path style="fill:#F4B2B0;" d="M387.72,226.855c-4.395,0-8.736-1.283-12.553-3.713l-1.282-0.799
	c-0.985-0.618-1.973-1.234-2.964-1.834c-0.576-0.35-1.154-0.691-1.731-1.033l-0.289-0.171c-0.826-0.489-1.654-0.972-2.486-1.45
	c-0.681-0.391-1.363-0.78-2.045-1.164c-0.915-0.512-1.838-1.015-2.76-1.514c-0.762-0.412-1.527-0.826-2.291-1.229
	c-1.194-0.63-2.391-1.248-3.59-1.853c-0.547-0.276-2.061-1.019-2.061-1.019c-0.836-0.411-1.673-0.817-2.512-1.217
	c-0.714-0.34-1.428-0.678-2.143-1.009c-0.87-0.404-1.738-0.796-2.608-1.187c0,0-1.535-0.695-1.976-0.888
	c-1.39-0.608-2.784-1.202-4.18-1.782c-0.571-0.237-1.144-0.469-1.718-0.699l-0.412-0.166c-0.826-0.334-1.647-0.665-2.472-0.988
	c-0.759-0.297-1.517-0.59-2.276-0.878c-0.803-0.306-1.609-0.604-2.413-0.9c0,0-1.669-0.617-2.226-0.816
	c-1.376-0.492-2.755-0.972-4.133-1.438c-0.533-0.179-2.294-0.753-2.294-0.753c-0.772-0.253-1.545-0.505-2.318-0.749
	c-0.814-0.259-1.629-0.51-2.443-0.759c-0.725-0.222-2.321-0.696-2.321-0.696c-0.777-0.23-1.554-0.461-2.331-0.682
	c-0.588-0.169-2.219-0.617-2.219-0.617c-1.485-0.411-2.966-0.807-4.45-1.19l-1.923-0.493c-0.903-0.226-1.805-0.445-2.708-0.66
	l-1.816-0.428c-0.93-0.216-1.859-0.432-2.787-0.637l-1.407-0.303c-1.979-0.428-3.953-0.834-5.926-1.217l-0.971-0.19
	c-1.036-0.198-2.071-0.385-3.104-0.571l-1.308-0.232c-1.056-0.185-2.108-0.365-3.157-0.537l-0.779-0.125
	c-3.572-0.576-7.203-1.096-10.79-1.545l-0.554-0.07c-1.225-0.152-2.439-0.296-3.649-0.431c-5.05-0.563-10.183-1.016-15.3-1.349
	c-7.536-0.492-15.298-0.742-23.074-0.742c-54.744,0-95.689,12.063-96.095,12.184c-2.166,0.651-4.399,0.982-6.631,0.982
	c-11.17,0-21.046-8.214-24.018-19.974c-3.647-14.451,4.165-29.448,17.412-33.432c1.615-0.486,40.217-11.955,94.063-13.892
	c5.063-0.182,10.167-0.274,15.17-0.274c26.226,0,51.605,2.5,75.436,7.432c36.125,7.474,69.099,20.607,98.007,39.033
	c7.898,5.032,12.627,14.36,12.342,24.342c-0.104,3.605-0.851,7.098-2.223,10.383c-0.347,0.833-0.742,1.664-1.173,2.467
	C404.807,221.693,396.553,226.855,387.72,226.855z"/>
<path style="fill:#B3404A;" d="M387.72,241.069c-7.103,0-14.08-2.051-20.182-5.933l-1.17-0.728c-0.959-0.603-1.883-1.178-2.811-1.74
	c-0.492-0.298-0.982-0.588-1.473-0.878l-0.409-0.242c-0.785-0.465-1.562-0.918-2.34-1.363c-0.642-0.37-1.281-0.733-1.92-1.093
	c-0.846-0.473-1.711-0.945-2.577-1.414c-0.714-0.387-1.433-0.775-2.153-1.156c-1.114-0.588-2.233-1.167-3.356-1.733
	c-0.505-0.254-1.923-0.949-1.929-0.954c-0.789-0.388-1.573-0.77-2.361-1.144c-0.669-0.32-1.339-0.637-2.011-0.948
	c-0.819-0.38-1.636-0.749-2.453-1.117c-0.036-0.016-1.454-0.658-1.862-0.837c-1.293-0.566-2.605-1.124-3.919-1.67
	c-0.526-0.219-1.045-0.428-1.565-0.635l-0.418-0.169c-0.804-0.326-1.576-0.635-2.35-0.94c-0.711-0.279-1.426-0.554-2.143-0.827
	c-0.755-0.287-1.511-0.567-2.266-0.844c-0.027-0.01-1.59-0.587-2.112-0.775c-1.291-0.461-2.591-0.914-3.895-1.355
	c-0.493-0.166-2.143-0.705-2.151-0.706c-0.741-0.242-1.465-0.479-2.192-0.709c-0.793-0.252-1.562-0.489-2.328-0.723
	c-0.685-0.21-2.205-0.662-2.213-0.664c-0.718-0.213-1.45-0.431-2.182-0.64c-0.557-0.159-2.069-0.574-2.078-0.577
	c-1.43-0.395-2.831-0.77-4.234-1.131l-1.907-0.489c-0.765-0.19-1.618-0.398-2.47-0.601l-1.782-0.419
	c-0.841-0.196-1.721-0.399-2.6-0.594l-1.33-0.287c-1.888-0.408-3.767-0.795-5.641-1.158l-1.003-0.198
	c-0.903-0.172-1.892-0.352-2.878-0.53l-1.271-0.226c-0.972-0.171-1.976-0.343-2.975-0.506l-0.731-0.118
	c-3.435-0.553-6.899-1.049-10.303-1.475l-0.553-0.068c-1.154-0.144-2.313-0.28-3.465-0.409c-4.824-0.539-9.751-0.974-14.639-1.291
	c-7.238-0.473-14.69-0.712-22.153-0.712c-52.106,0-91.664,11.483-92.057,11.598c-3.441,1.036-7.05,1.569-10.669,1.569
	c-17.687,0-33.23-12.627-37.798-30.707c-5.481-21.718,6.675-44.383,27.098-50.524c1.68-0.506,41.978-12.482,97.645-14.487
	c32.754-1.18,64.51,1.342,93.997,7.444c37.822,7.825,72.398,21.608,102.767,40.966c12.091,7.701,19.338,21.78,18.91,36.737
	c-0.152,5.351-1.268,10.552-3.316,15.454c-0.523,1.254-1.116,2.5-1.76,3.701C414.856,233.034,401.801,241.069,387.72,241.069z
	 M359.941,198.324c0,0,1.599,0.786,2.178,1.077c1.286,0.65,2.561,1.308,3.832,1.979c0.813,0.429,1.623,0.866,2.428,1.303
	c0.982,0.533,1.961,1.066,2.932,1.609c0.739,0.415,1.465,0.829,2.189,1.245c0.878,0.505,1.76,1.019,2.638,1.538l0.436,0.257
	c0.571,0.338,1.143,0.678,1.714,1.023c1.052,0.637,2.102,1.291,3.151,1.949l1.244,0.775c1.646,1.046,3.349,1.562,5.036,1.562
	c3.586,0,7.04-2.288,9.014-5.974c0.212-0.395,0.408-0.807,0.583-1.225c0.699-1.676,1.08-3.462,1.133-5.314
	c0.142-4.938-2.123-9.627-5.771-11.951c-27.449-17.497-58.823-29.979-93.25-37.103c-27.263-5.641-56.736-7.967-87.216-6.872
	c-52.039,1.872-88.926,12.832-90.471,13.297c-5.977,1.798-9.513,9.281-7.731,16.346c1.374,5.438,5.583,9.239,10.237,9.239
	c0.844,0,1.697-0.128,2.537-0.381c1.785-0.533,43.558-12.787,100.19-12.787c8.08,0,16.155,0.26,24.001,0.772
	c5.319,0.345,10.687,0.819,15.949,1.406c1.271,0.142,2.54,0.293,3.822,0.452l0.569,0.071c3.734,0.468,7.53,1.011,11.286,1.616
	l0.77,0.124c1.148,0.188,2.25,0.378,3.354,0.57l1.34,0.237c1.116,0.2,2.196,0.398,3.278,0.604l1.057,0.208
	c2.037,0.395,4.108,0.823,6.184,1.271l1.4,0.301c1.055,0.233,2.034,0.461,3.015,0.688l1.855,0.438
	c0.986,0.236,1.939,0.468,2.892,0.705l2.011,0.516c1.579,0.407,3.141,0.824,4.708,1.258l0,0c0.014,0.004,1.723,0.473,2.344,0.651
	c0.813,0.233,1.636,0.476,2.459,0.721c0.013,0.003,1.677,0.5,2.435,0.731c0.867,0.266,1.728,0.532,2.59,0.806
	c0.796,0.25,1.616,0.519,2.436,0.787c0.003,0,1.852,0.604,2.415,0.795c1.464,0.495,2.921,1.002,4.374,1.521
	c0.598,0.213,2.368,0.867,2.368,0.867c0.834,0.307,1.689,0.624,2.543,0.948c0.8,0.304,1.6,0.614,2.402,0.927
	c0.88,0.344,1.753,0.695,2.63,1.05l0.384,0.154c0.621,0.25,1.247,0.502,1.872,0.762c1.471,0.611,2.948,1.241,4.419,1.885
	c0.486,0.213,2.132,0.958,2.132,0.958c0.891,0.401,1.811,0.817,2.733,1.244c0.759,0.352,1.518,0.711,2.276,1.072
	C358.165,197.456,359.054,197.888,359.941,198.324L359.941,198.324z"/>
<path style="fill:#F4B2B0;" d="M355.384,307.122c-0.118-0.003-0.236-0.007-0.354-0.016c-0.175-0.013-0.34-0.03-0.505-0.05
	l-0.298-0.031c-0.185-0.017-0.371-0.036-0.556-0.063l-0.175-0.028c-2.766-0.426-5.34-1.404-7.717-2.915
	c-1.714-1.093-3.575-2.224-5.69-3.464l-1.089-0.631c-3.724-2.143-7.594-4.19-11.503-6.082l-1.22-0.584
	c-3.774-1.792-7.678-3.489-11.601-5.046l-1.306-0.512c-1.873-0.726-3.748-1.431-5.623-2.095l-0.139-0.051
	c-1.991-0.704-3.936-1.347-5.879-1.97l-1.335-0.421c-1.848-0.578-3.694-1.134-5.538-1.657l-0.165-0.048
	c-2.054-0.58-3.995-1.092-5.937-1.581l-1.271-0.317c-1.856-0.456-3.713-0.897-5.56-1.303l-0.135-0.03
	c-2.035-0.446-3.986-0.843-5.929-1.217l-1.09-0.207c-1.902-0.357-3.799-0.698-5.684-1.006c-2.01-0.328-3.971-0.623-5.923-0.893
	l-0.8-0.111c-3.86-0.526-7.763-0.969-11.598-1.319l-0.367-0.033c-1.927-0.173-3.838-0.326-5.725-0.456l-1.386-0.095
	c-6.049-0.387-12.225-0.583-18.382-0.583c-3.248,0-6.544,0.055-9.799,0.162c-38.375,1.272-66.773,9.424-67.962,9.77
	c-1.807,0.537-3.676,0.812-5.543,0.812c-9.446,0-17.791-6.94-20.293-16.879c-3.07-12.187,3.521-24.837,14.693-28.198
	c1.316-0.397,32.818-9.772,76.859-11.355c4.14-0.148,8.315-0.225,12.408-0.225c21.41,0,42.141,2.042,61.613,6.071
	c29.542,6.116,56.502,16.855,80.129,31.917c1.842,1.174,3.499,2.632,4.925,4.335c5.701,6.798,7.121,16.606,3.619,24.985
	c-0.294,0.706-0.627,1.407-0.989,2.082c-3.758,7.014-10.726,11.372-18.182,11.372h-0.004c-0.286,0-0.567-0.013-0.851-0.027"/>
<path style="fill:#B3404A;" d="M356.383,321.368c-0.506,0-1.005-0.017-1.502-0.041c-0.281-0.009-0.563-0.023-0.847-0.041
	c-0.381-0.028-0.723-0.061-1.066-0.101l-0.148-0.016c-0.384-0.037-0.769-0.081-1.153-0.135c-0.097-0.014-0.192-0.028-0.289-0.044
	l-0.175-0.028c-4.574-0.704-9.009-2.377-13.055-4.951c-1.558-0.994-3.269-2.035-5.243-3.192l-1.038-0.603
	c-3.39-1.952-6.958-3.838-10.561-5.582l-1.17-0.56c-3.445-1.636-7.06-3.208-10.699-4.651l-1.251-0.49
	c-1.697-0.658-3.438-1.313-5.182-1.93l-0.181-0.065c-1.836-0.648-3.632-1.242-5.425-1.815l-1.279-0.404
	c-1.691-0.53-3.414-1.049-5.133-1.536c-0.047-0.013-0.092-0.027-0.139-0.04l-0.09-0.027c-1.895-0.533-3.688-1.006-5.481-1.458
	l-1.227-0.306c-1.703-0.418-3.447-0.833-5.184-1.215c-0.023-0.004-0.181-0.041-0.205-0.045c-1.834-0.402-3.666-0.773-5.492-1.126
	l-1.046-0.198c-1.77-0.333-3.555-0.654-5.33-0.944c-1.899-0.311-3.75-0.587-5.589-0.843l-0.782-0.108
	c-3.64-0.495-7.33-0.915-10.947-1.244l-0.364-0.033c-1.811-0.162-3.622-0.308-5.414-0.431l-1.392-0.097
	c-8.663-0.553-17.744-0.692-26.73-0.394c-36.67,1.214-64.179,9.129-64.452,9.209c-3.055,0.908-6.284,1.38-9.525,1.38
	c-15.968,0-29.981-11.358-34.077-27.621c-4.898-19.447,6.038-39.761,24.379-45.28c1.386-0.418,34.63-10.302,80.445-11.949
	c27.004-0.967,53.109,1.104,77.412,6.132c31.24,6.467,59.801,17.857,84.891,33.85c3.067,1.956,5.819,4.375,8.178,7.191
	c9.077,10.825,11.369,26.369,5.839,39.598c-0.463,1.113-0.995,2.23-1.572,3.309C380.857,314.137,369.089,321.368,356.383,321.368z
	 M356.049,292.924c0.058,0.001,0.118,0.004,0.176,0.007l0.226,0.01c2.141,0,4.307-1.484,5.586-3.873
	c0.146-0.271,0.28-0.556,0.398-0.839c1.457-3.487,0.897-7.654-1.392-10.383c-0.496-0.591-1.059-1.089-1.676-1.482
	c-22.168-14.13-47.526-24.219-75.371-29.984c-22.077-4.567-45.897-6.452-70.63-5.56c-42.186,1.517-72.016,10.383-73.266,10.76
	c-3.872,1.166-6.211,6.361-5.012,11.119c1.049,4.169,4.634,6.916,8.002,5.914c1.329-0.387,31.33-9.02,71.543-10.352
	c9.903-0.328,19.869-0.178,29.557,0.442l1.46,0.101c1.979,0.136,3.987,0.297,6.012,0.479l0.385,0.034
	c4.035,0.367,8.149,0.834,12.228,1.39l0.824,0.114c2.081,0.29,4.155,0.598,6.278,0.947c1.991,0.326,4.001,0.685,6.014,1.065
	l1.113,0.21c2.105,0.406,4.173,0.826,6.331,1.301c0.027,0.006,0.189,0.043,0.216,0.048c1.892,0.416,3.86,0.883,5.829,1.367
	l1.311,0.327c2.108,0.533,4.175,1.076,6.361,1.693c0.05,0.014,0.101,0.028,0.151,0.043l0.095,0.028
	c1.944,0.551,3.892,1.138,5.84,1.748l1.367,0.431c2.405,0.77,4.402,1.438,6.339,2.124c0.045,0.016,0.09,0.033,0.135,0.05l0.139,0.05
	c1.718,0.608,3.688,1.342,5.892,2.196l1.35,0.529c4.268,1.693,8.461,3.516,12.514,5.44l1.266,0.607
	c4.261,2.062,8.434,4.268,12.451,6.582l1.131,0.657c2.337,1.369,4.347,2.593,6.197,3.772c0.702,0.446,1.406,0.718,2.199,0.846
	c0.033,0.003,0.065,0.006,0.087,0.009l0.299,0.031C356.021,292.923,356.036,292.924,356.049,292.924z"/>
</svg>