<?xml version="1.0" encoding="UTF-8"?>
<!DOCTYPE svg PUBLIC "-//W3C//DTD SVG 1.1//EN" "http://www.w3.org/Graphics/SVG/1.1/DTD/svg11.dtd">
<!-- Creator: CorelDRAW -->
<svg xmlns="http://www.w3.org/2000/svg" xml:space="preserve" width="2048px" height="2048px" style="shape-rendering:geometricPrecision; text-rendering:geometricPrecision; image-rendering:optimizeQuality; fill-rule:evenodd; clip-rule:evenodd"
viewBox="0 0 2048 2048"
 xmlns:xlink="http://www.w3.org/1999/xlink">
 <defs>
  <style type="text/css">
   <![CDATA[
    .fil2 {fill:none}
    .fil3 {fill:#5C6BC0}
    .fil9 {fill:#5D4037}
    .fil8 {fill:#6D4C41}
    .fil1 {fill:#E64A19}
    .fil4 {fill:#EEEEEE}
    .fil7 {fill:#F9A825}
    .fil0 {fill:#FF7043}
    .fil6 {fill:#616161;fill-rule:nonzero}
    .fil5 {fill:#757575;fill-rule:nonzero}
   ]]>
  </style>
   <clipPath id="id0">
    <path d="M1024 0c565.541,0 1024,458.459 1024,1024 0,565.541 -458.459,1024 -1024,1024 -565.541,0 -1024,-458.459 -1024,-1024 0,-565.541 458.459,-1024 1024,-1024z"/>
   </clipPath>
 </defs>
 <g id="Layer_x0020_1">
  <metadata id="CorelCorpID_0Corel-Layer"/>
  <path class="fil0" d="M1024 0c565.541,0 1024,458.459 1024,1024 0,565.541 -458.459,1024 -1024,1024 -565.541,0 -1024,-458.459 -1024,-1024 0,-565.541 458.459,-1024 1024,-1024z"/>
  <g style="clip-path:url(#id0)">
   <g id="_308711560">
    <g>
     <polygon id="_3039310881" class="fil1" points="1306.9,875.701 2442.78,2011.58 2444.79,2017.76 2446.63,2023.99 2448.31,2030.25 2449.82,2036.56 2451.17,2042.89 2452.35,2049.26 2453.37,2055.66 2454.21,2062.08 2454.89,2068.52 2455.41,2074.98 2455.75,2081.45 2455.93,2087.92 2455.94,2094.41 2455.78,2100.9 2455.45,2107.39 2454.94,2113.87 2454.27,2120.34 2453.43,2126.81 2452.41,2133.26 2451.22,2139.68 2449.86,2146.09 2448.33,2152.47 2446.62,2158.83 2444.74,2165.15 2442.68,2171.43 2440.45,2177.67 2438.04,2183.87 2435.46,2190.02 2432.69,2196.13 2429.76,2202.17 2426.64,2208.16 2423.35,2214.09 1287.47,1078.21 1290.76,1072.28 1293.88,1066.29 1296.81,1060.24 1299.57,1054.14 1302.16,1047.99 1304.57,1041.79 1306.8,1035.55 1308.85,1029.26 1310.74,1022.94 1312.45,1016.59 1313.98,1010.21 1315.34,1003.8 1316.53,997.373 1317.55,990.926 1318.39,984.461 1319.06,977.987 1319.57,971.505 1319.9,965.017 1320.06,958.529 1320.05,952.042 1319.87,945.563 1319.53,939.093 1319.01,932.636 1318.33,926.196 1317.48,919.776 1316.47,913.38 1315.29,907.012 1313.94,900.673 1312.43,894.369 1310.75,888.105 1308.91,881.88 "/>
     <polygon id="_303930920" class="fil1" points="1572.91,1339.66 2708.79,2475.54 2707.06,2477.68 2705.25,2479.71 2703.35,2481.62 2701.38,2483.42 2699.33,2485.11 2697.22,2486.68 2695.04,2488.14 2692.8,2489.48 2690.51,2490.71 2688.17,2491.82 2685.79,2492.81 2683.36,2493.68 2680.9,2494.43 2678.41,2495.07 2675.9,2495.58 2673.36,2495.98 2670.81,2496.25 2668.25,2496.4 2665.68,2496.43 2663.1,2496.33 2660.54,2496.11 2657.97,2495.77 2655.42,2495.3 2652.89,2494.7 2650.38,2493.98 2647.9,2493.13 2645.44,2492.16 2643.03,2491.05 2640.65,2489.82 2638.32,2488.45 2636.04,2486.96 2633.81,2485.33 1497.93,1349.45 1500.16,1351.08 1502.44,1352.57 1504.77,1353.93 1507.15,1355.17 1509.56,1356.27 1512.02,1357.25 1514.5,1358.1 1517.01,1358.82 1519.54,1359.42 1522.09,1359.89 1524.65,1360.23 1527.22,1360.45 1529.8,1360.54 1532.37,1360.52 1534.93,1360.37 1537.48,1360.09 1540.02,1359.7 1542.53,1359.19 1545.02,1358.55 1547.48,1357.8 1549.9,1356.93 1552.29,1355.93 1554.63,1354.82 1556.92,1353.6 1559.16,1352.26 1561.33,1350.8 1563.45,1349.23 1565.5,1347.54 1567.47,1345.74 1569.37,1343.82 1571.18,1341.79 "/>
     <polygon id="_303930800" class="fil1" points="1296.72,1169.64 2432.6,2305.52 2431.98,2305.04 1296.1,1169.16 "/>
     <polygon id="_303930848" class="fil1" points="1285.2,1160.79 2421.09,2296.68 2421.09,2713.3 1285.2,1577.42 "/>
     <polygon id="_303931232" class="fil1" points="1296.1,1169.16 2431.98,2305.04 2431.9,2304.98 2431.81,2304.92 2431.73,2304.85 2431.65,2304.79 2431.56,2304.73 2431.48,2304.66 2431.4,2304.6 2431.32,2304.53 1295.43,1168.65 1295.52,1168.72 1295.6,1168.78 1295.68,1168.84 1295.77,1168.91 1295.85,1168.97 1295.93,1169.04 1296.02,1169.1 "/>
     <polygon id="_303931808" class="fil1" points="1295.43,1168.65 2431.32,2304.53 2421.09,2296.68 1285.2,1160.79 "/>
     <polygon id="_303931928" class="fil1" points="1497.93,1349.45 2633.81,2485.33 2453.49,2346.85 1317.61,1210.97 "/>
     <polygon id="_303931472" class="fil1" points="1317.61,1210.97 2453.49,2346.85 2452.25,2345.87 2451.05,2344.86 2449.89,2343.83 2448.76,2342.76 2447.67,2341.68 1311.79,1205.79 1312.88,1206.88 1314.01,1207.95 1315.17,1208.98 1316.37,1209.99 "/>
     <polygon id="_303932192" class="fil1" points="1285.2,1577.42 2421.09,2713.3 1599.88,2713.3 463.999,1577.42 "/>
     <polygon id="_303931832" class="fil1" points="1285.2,470.579 2421.09,1606.46 2421.09,1964.53 1285.2,828.644 "/>
     <polygon id="_303932144" class="fil1" points="1285.2,828.644 2421.09,1964.53 2421.92,1965.93 2422.74,1967.34 2423.55,1968.76 2424.35,1970.18 2425.15,1971.61 2425.93,1973.04 2426.7,1974.47 2427.46,1975.91 2428.22,1977.35 2428.96,1978.8 2429.69,1980.25 2430.41,1981.7 2431.13,1983.16 2431.83,1984.62 2432.52,1986.09 2433.21,1987.56 2433.88,1989.04 2434.54,1990.51 2435.2,1992 2435.84,1993.48 2436.48,1994.97 2437.1,1996.47 2437.71,1997.96 2438.32,1999.46 2438.91,2000.97 2439.49,2002.47 2440.07,2003.98 2440.63,2005.5 2441.18,2007.01 2441.73,2008.53 2442.26,2010.06 2442.78,2011.58 1306.9,875.701 1306.38,874.175 1305.85,872.651 1305.3,871.131 1304.75,869.614 1304.19,868.101 1303.61,866.591 1303.03,865.084 1302.43,863.58 1301.83,862.08 1301.22,860.584 1300.59,859.09 1299.96,857.6 1299.32,856.114 1298.66,854.632 1298,853.153 1297.33,851.679 1296.64,850.208 1295.95,848.741 1295.25,847.279 1294.53,845.819 1293.81,844.365 1293.08,842.913 1292.33,841.468 1291.58,840.024 1290.82,838.587 1290.05,837.153 1289.26,835.724 1288.47,834.298 1287.67,832.879 1286.86,831.462 1286.04,830.051 "/>
     <polygon id="_303932048" class="fil1" points="1569.17,1270.08 2705.05,2405.96 2706.85,2407.94 2708.54,2409.99 2710.12,2412.11 2711.58,2414.29 2712.92,2416.53 2714.15,2418.82 2715.26,2421.16 2716.25,2423.55 2717.13,2425.98 2717.88,2428.44 2718.52,2430.93 2719.03,2433.45 2719.43,2435.98 2719.7,2438.54 2719.85,2441.1 2719.88,2443.67 2719.78,2446.25 2719.56,2448.82 2719.22,2451.38 2718.75,2453.93 2718.15,2456.46 2717.43,2458.97 2716.58,2461.46 2715.61,2463.91 2714.5,2466.33 2713.27,2468.7 2711.91,2471.03 2710.41,2473.31 2708.79,2475.54 1572.91,1339.66 1574.53,1337.43 1576.03,1335.15 1577.39,1332.82 1578.62,1330.44 1579.72,1328.03 1580.7,1325.57 1581.55,1323.09 1582.27,1320.58 1582.87,1318.05 1583.34,1315.5 1583.68,1312.93 1583.9,1310.36 1584,1307.79 1583.97,1305.22 1583.82,1302.66 1583.55,1300.1 1583.15,1297.56 1582.64,1295.05 1582,1292.56 1581.25,1290.09 1580.37,1287.67 1579.38,1285.28 1578.27,1282.94 1577.04,1280.65 1575.7,1278.41 1574.24,1276.22 1572.66,1274.11 1570.97,1272.06 "/>
    </g>
    <path id="_308711728" class="fil1" d="M1382.77 1126.13l180.301 138.507c23.4673,17.974 27.8469,51.5977 9.83623,75.0213 -17.9445,23.413 -51.5398,27.8268 -74.9788,9.79607l-180.325 -138.482c-13.3772,-10.2886 -20.55,-25.6677 -20.8843,-41.3303l-0.620079 -0.477166c-0.22441,-0.167717 -0.446457,-0.337796 -0.667323,-0.511418l-10.2295 -7.85788 0 416.628 -821.206 0 0 -1106.84 821.206 0 0 358.066c8.92324,14.9788 16.1681,30.7618 21.6992,47.0563 22.265,65.6587 16.6382,139.602 -19.4351,202.511l48.5693 37.3016c0.375591,0.277559 0.746457,0.562205 1.11142,0.853938l0.304725 0.23504c15.2244,-3.71929 31.9359,-0.752363 45.3178,9.5256z"/>
   </g>
  </g>
  <path class="fil2" d="M1024 0c565.541,0 1024,458.459 1024,1024 0,565.541 -458.459,1024 -1024,1024 -565.541,0 -1024,-458.459 -1024,-1024 0,-565.541 458.459,-1024 1024,-1024z"/>
  <polygon class="fil3" points="464,470.579 1285.2,470.579 1285.2,1577.42 464,1577.42 "/>
  <polygon class="fil4" points="501.118,507.698 501.118,1540.3 1248.09,1540.3 1248.09,507.698 "/>
  <polygon class="fil5" points="617.049,643.805 1132.16,643.805 1132.16,662.365 617.049,662.365 "/>
  <polygon class="fil5" points="557.106,706.625 1192.1,706.625 1192.1,725.184 557.106,725.184 "/>
  <polygon class="fil5" points="557.106,769.442 1192.1,769.442 1192.1,788.001 557.106,788.001 "/>
  <polygon class="fil5" points="557.106,832.261 1192.1,832.261 1192.1,850.821 557.106,850.821 "/>
  <polygon class="fil5" points="557.106,895.078 1192.1,895.078 1192.1,913.638 557.106,913.638 "/>
  <polygon class="fil5" points="557.106,957.896 1192.1,957.896 1192.1,976.456 557.106,976.456 "/>
  <polygon class="fil5" points="557.106,1020.71 1192.1,1020.71 1192.1,1039.27 557.106,1039.27 "/>
  <polygon class="fil5" points="557.106,1083.53 1192.1,1083.53 1192.1,1102.09 557.106,1102.09 "/>
  <polygon class="fil5" points="557.106,1146.35 1192.1,1146.35 1192.1,1164.91 557.106,1164.91 "/>
  <polygon class="fil5" points="557.106,1209.17 1192.1,1209.17 1192.1,1227.73 557.106,1227.73 "/>
  <polygon class="fil5" points="557.106,1271.99 1192.1,1271.99 1192.1,1290.55 557.106,1290.55 "/>
  <polygon class="fil5" points="557.106,1334.8 1192.1,1334.8 1192.1,1353.36 557.106,1353.36 "/>
  <polygon class="fil5" points="557.106,1397.62 1192.1,1397.62 1192.1,1416.18 557.106,1416.18 "/>
  <polygon class="fil5" points="557.106,1460.44 1192.1,1460.44 1192.1,1479 557.106,1479 "/>
  <polygon class="fil6" points="858.042,895.078 1192.1,895.078 1192.1,913.638 858.042,913.638 "/>
  <polygon class="fil6" points="828.516,957.896 1192.1,957.896 1192.1,976.456 828.516,976.456 "/>
  <polygon class="fil6" points="871.418,1020.71 1192.1,1020.71 1192.1,1039.27 871.418,1039.27 "/>
  <polygon class="fil6" points="904.922,1083.53 1192.1,1083.53 1192.1,1102.09 904.922,1102.09 "/>
  <polygon class="fil6" points="890.476,832.261 1192.1,832.261 1192.1,850.821 890.476,850.821 "/>
  <polygon class="fil7" points="1458.95,1209.92 1418.2,1262.96 1227.3,1116.31 1268.01,1063.27 "/>
  <path class="fil8" d="M1563.07 1264.63c23.4673,17.974 27.8469,51.5977 9.83623,75.0213 -17.9433,23.413 -51.5398,27.828 -74.9776,9.79607l-180.325 -138.482c-23.4036,-17.9977 -27.8173,-51.5752 -9.85276,-74.9977 18.0024,-23.4307 51.6048,-27.8256 75.019,-9.84331l180.3 138.506z"/>
  <path class="fil9" d="M838.44 1035.06c15.1665,44.7095 43.265,85.5851 83.5075,116.499 108.364,83.2347 263.704,62.8878 346.934,-45.4678 52.3028,-68.0965 63.6745,-154.741 38.0221,-230.388l-43.6914 14.863c20.863,61.5497 11.6126,132.045 -30.9296,187.449 -67.6784,88.1044 -194.061,104.675 -282.236,36.9402 -32.7201,-25.1481 -55.5839,-58.3843 -67.9146,-94.7576l-43.6914 14.8618zm38.0091 -230.349c-52.3111,68.0717 -63.6733,154.716 -38.0091,230.349l43.689 -14.8618c-20.8819,-61.5343 -11.6469,-132.038 30.9024,-187.412 67.6961,-88.1292 194.099,-104.738 282.259,-37.0382 32.7437,25.161 55.6004,58.4268 67.9217,94.8178l43.6914 -14.863c-15.1831,-44.7296 -43.2839,-85.6087 -83.5536,-116.555 -108.331,-83.2087 -263.64,-62.8264 -346.901,45.5622z"/>
  <path class="fil7" d="M1347.86 1131.65c-5.93504,-17.4496 -25.0016,-26.8418 -42.4512,-20.9067 -17.452,5.93504 -26.8347,25.0099 -20.8996,42.4583 5.93623,17.4496 25.0028,26.8441 42.4548,20.9079 17.4496,-5.93623 26.8323,-25.0087 20.8961,-42.4595z"/>
 </g>
</svg>
